<?xml version="1.0" encoding="UTF-8" standalone="no"?>
<!-- Created with Inkscape (http://www.inkscape.org/) -->

<svg
   width="80.445663"
   height="92.944061"
   viewBox="0 0 26.815221 30.981354"
   version="1.1"
   id="svg1"
   inkscape:version="1.3 (0e150ed6c4, 2023-07-21)"
   sodipodi:docname="web-9de9-v01.svg"
   xmlns:inkscape="http://www.inkscape.org/namespaces/inkscape"
   xmlns:sodipodi="http://sodipodi.sourceforge.net/DTD/sodipodi-0.dtd"
   xmlns="http://www.w3.org/2000/svg"
   xmlns:svg="http://www.w3.org/2000/svg">
  <sodipodi:namedview
     id="namedview1"
     pagecolor="#ffffff"
     bordercolor="#000000"
     borderopacity="0.25"
     inkscape:showpageshadow="2"
     inkscape:pageopacity="0.0"
     inkscape:pagecheckerboard="0"
     inkscape:deskcolor="#d1d1d1"
     inkscape:document-units="px"
     inkscape:zoom="1.0318224"
     inkscape:cx="524.79964"
     inkscape:cy="358.10428"
     inkscape:window-width="1920"
     inkscape:window-height="1016"
     inkscape:window-x="0"
     inkscape:window-y="28"
     inkscape:window-maximized="1"
     inkscape:current-layer="layer1" />
  <defs
     id="defs1" />
  <g
     inkscape:label="Capa 1"
     inkscape:groupmode="layer"
     id="layer1"
     transform="translate(-65.211327,-8.0942897)">
    <rect
       style="display:inline;fill:#808080;stroke:none;stroke-width:15.6828;stroke-linejoin:bevel;paint-order:stroke fill markers"
       id="rect3278"
       width="341.33334"
       height="256"
       x="0"
       y="0"
       sodipodi:insensitive="true" />
    <path
       id="path1443"
       style="display:inline;fill:#ffffff;fill-opacity:1;stroke:none;stroke-width:2.57187;stroke-linejoin:bevel;paint-order:stroke fill markers"
       d="m 18.064999,0.009663 c -0.626,0 -1.243,0.02667 -1.852666,0.09667 -0.608333,0.065 -1.207667,0.154666 -1.797,0.274333 -0.589,0.121 -1.167,0.27 -1.733667,0.445667 -0.566666,0.178 -1.120666,0.382 -1.661333,0.610666 -0.541,0.229667 -1.0683327,0.485 -1.5789997,0.762667 C 8.928,2.476666 8.431,2.781333 7.951,3.107999 7.47,3.430666 7.007,3.781999 6.56,4.149666 6.114333,4.519333 5.687666,4.911333 5.279,5.320666 4.871666,5.7326659 4.482333,6.1639992 4.114666,6.6083326 3.747,7.0586659 3.401333,7.5249992 3.076666,8.0089992 2.753,8.4903325 2.451333,8.9896659 2.173666,9.5063325 1.895666,10.020999 1.642333,10.550333 1.414666,11.094333 1.187,11.638999 0.984333,12.197666 0.808666,12.763999 0.634,13.335333 0.485666,13.915666 0.365,14.509 0.245333,15.101 0.153333,15.703333 0.092,16.314 0.027,16.926666 0,17.547666 0,18.177333 v 92.479667 0 c 0,31.35566 0.80766603,66.27911 0.80766603,132.47678 0.174334,0.56766 0.37699997,1.12733 0.60466697,1.672 0.228333,0.54433 0.481667,1.07466 0.758667,1.58733 0.277,0.516 0.579333,1.014 0.903333,1.49733 0.323333,0.48467 0.67,0.951 1.038,1.399 0.367667,0.44734 0.757,0.87734 1.165,1.288 0.408,0.41167 0.836,0.80234 1.280667,1.17267 0.447,0.368 0.911,0.71633 1.390666,1.041 0.480334,0.32667 0.977,0.63033 1.4893343,0.90933 0.511666,0.277 1.0389997,0.53434 1.5799997,0.76434 0.540666,0.22833 1.095,0.43166 1.661333,0.608 0.566667,0.17533 1.144667,0.32466 1.733667,0.44633 0.589666,0.119 1.188666,0.21067 1.797333,0.275 0.609,0.065 1.227,0.096 1.852333,0.096 H 323.2429 c 0.62567,0 1.243,-0.0267 1.85167,-0.096 0.60867,-0.0657 1.20833,-0.156 1.79767,-0.275 0.58866,-0.12167 1.16733,-0.271 1.73366,-0.44633 0.56667,-0.17634 1.12134,-0.37967 1.66167,-0.608 0.541,-0.23 1.067,-0.48734 1.579,-0.76434 0.51267,-0.279 1.01033,-0.58266 1.49033,-0.90933 0.48034,-0.32467 0.94434,-0.673 1.39,-1.041 0.44634,-0.37033 0.873,-0.761 1.282,-1.17267 0.408,-0.41066 0.79634,-0.84066 1.16434,-1.288 0.36666,-0.448 0.71399,-0.91433 1.03799,-1.399 0.32367,-0.48333 0.625,-0.98133 0.903,-1.49733 0.278,-0.51267 0.53134,-1.043 0.758,-1.58733 0.22934,-0.54467 0.43067,-1.10434 0.60634,-1.672 0.17533,-0.569 0.324,-1.15034 0.44333,-1.74234 0.121,-0.59366 0.21167,-1.196 0.27367,-1.80833 0.065,-0.61167 0.0937,-1.232 0.0937,-1.861 V 137.50133 c 0,-0.61033 -0.0267,-1.21433 -0.0917,-1.80867 0.0583,-0.59333 0.0917,-1.196 0.0917,-1.80466 V 18.168997 c 0,-0.63 -0.0267,-1.248334 -0.0937,-1.861667 -0.0583,-0.613 -0.15267,-1.216667 -0.27367,-1.807333 -0.11933,-0.594 -0.268,-1.173001 -0.44333,-1.745001 -0.17567,-0.569333 -0.377,-1.127667 -0.60634,-1.668333 -0.22666,-0.545333 -0.48,-1.074333 -0.758,-1.5886668 -0.278,-0.5146667 -0.57933,-1.0163333 -0.903,-1.4996667 -0.324,-0.4816666 -0.67133,-0.95 -1.03799,-1.3989999 -0.368,-0.446 -0.75634,-0.877 -1.16434,-1.2863336 -0.409,-0.410666 -0.83566,-0.801 -1.282,-1.171333 -0.44566,-0.369333 -0.90966,-0.717667 -1.39,-1.043333 -0.48,-0.326 -0.97766,-0.629667 -1.49033,-0.908667 -0.511,-0.28 -1.038,-0.534 -1.579,-0.762 -0.54033,-0.231 -1.095,-0.435 -1.66167,-0.61 -0.56633,-0.177333 -1.145,-0.325333 -1.73366,-0.447 -0.58934,-0.12 -1.189,-0.212 -1.79767,-0.274333 C 324.4859,0.03133 323.86857,0 323.2429,0 Z"
       sodipodi:nodetypes="ccccccccccscscscsccccccsscccccccsscccccccscsccsccsscssccccsccsssccccccc"
       sodipodi:insensitive="true" />
    <g
       id="g1733"
       style="display:inline"
       transform="matrix(1.5490648,0,0,1.5490648,46.622551,-10.494488)">
      <path
         id="path1730"
         style="display:inline;fill:#6f7c91;fill-opacity:1;stroke:#6f7c91;stroke-width:0.281692;stroke-linejoin:bevel;stroke-dasharray:none;stroke-opacity:1;paint-order:stroke fill markers"
         d="m 20.79364,12.141416 c -0.05147,0 -0.102131,0.0022 -0.1522,0.008 -0.05,0.0053 -0.0992,0.01267 -0.147642,0.02253 -0.0484,0.01 -0.09587,0.02218 -0.14244,0.03661 -0.04653,0.01461 -0.09213,0.03139 -0.136495,0.05018 -0.0444,0.01887 -0.08773,0.03984 -0.129734,0.06267 -0.04213,0.02276 -0.08306,0.04779 -0.122401,0.07461 -0.03947,0.0265 -0.0776,0.0554 -0.114266,0.0856 -0.03666,0.03036 -0.0716,0.06258 -0.105202,0.09622 -0.03346,0.03382 -0.06547,0.06926 -0.0956,0.105787 -0.03013,0.037 -0.05867,0.07531 -0.08534,0.115054 -0.02667,0.03956 -0.05134,0.0806 -0.07414,0.12304 -0.0228,0.04228 -0.0436,0.08576 -0.0624,0.130455 -0.01867,0.04476 -0.03534,0.09064 -0.04987,0.137184 -0.0144,0.04695 -0.02653,0.09461 -0.03641,0.143381 -0.0094,0.04864 -0.01733,0.09812 -0.0224,0.148295 -0.0053,0.05033 -0.008,0.101349 -0.008,0.153083 v 7.598046 0 0.857597 c 0,0.05161 0.0027,0.10247 0.008,0.152863 0.0053,0.05029 0.012,0.09991 0.0224,0.148576 0.0094,0.04864 0.02213,0.09633 0.03641,0.14332 0.0144,0.04669 0.03107,0.09249 0.04987,0.137153 0.01866,0.04463 0.03947,0.08817 0.0624,0.130428 0.0228,0.04246 0.04761,0.08351 0.07414,0.123321 0.02667,0.03956 0.05507,0.07791 0.08534,0.114494 0.03013,0.03696 0.06214,0.07217 0.0956,0.105946 0.0336,0.03374 0.06867,0.06577 0.105202,0.09628 0.03666,0.0303 0.0748,0.05894 0.114266,0.08583 0.03947,0.0267 0.08027,0.05164 0.122401,0.07459 0.042,0.02297 0.08534,0.04379 0.129734,0.06251 0.0444,0.01893 0.09,0.03571 0.136495,0.05015 0.04654,0.0148 0.094,0.02683 0.14244,0.03674 0.0484,0.0099 0.0976,0.01728 0.147642,0.02232 0.05013,0.0053 0.100804,0.008 0.1522,0.008 h 1.795598 v 0 h 0.907485 c 0.05147,0 0.101606,0.0053 0.149962,0.0151 0.0484,0.0099 0.09507,0.02466 0.139494,0.04335 0.0444,0.01887 0.08666,0.04174 0.126134,0.06871 0.03947,0.0267 0.07627,0.05715 0.109734,0.09089 0.03346,0.0338 0.06386,0.07067 0.09053,0.11024 0.02653,0.03984 0.04947,0.08214 0.06827,0.126948 0.01867,0.04469 0.0332,0.09146 0.04307,0.140251 0.0094,0.04848 0.01507,0.09896 0.01507,0.150705 v 3.464435 c 0,0.05162 -0.0053,0.101946 -0.01507,0.150737 -0.0094,0.0486 -0.0244,0.0955 -0.04307,0.14022 -0.0188,0.04466 -0.0416,0.08711 -0.06827,0.126641 -0.02667,0.03993 -0.05693,0.07663 -0.09053,0.110453 -0.0336,0.03373 -0.07027,0.06425 -0.109734,0.09109 -0.03947,0.02676 -0.08174,0.0497 -0.126134,0.06854 -0.0444,0.0189 -0.09107,0.0334 -0.139494,0.0435 -0.0484,0.0099 -0.09853,0.01493 -0.149962,0.01493 h -0.907512 v 0 h -1.79569 c -0.05134,0 -0.102131,0.0022 -0.152175,0.0079 -0.05,0.0053 -0.0992,0.01254 -0.147668,0.02244 -0.0484,0.01 -0.09587,0.02209 -0.142387,0.03661 -0.04654,0.01465 -0.09214,0.03137 -0.136521,0.05004 -0.04453,0.0189 -0.08773,0.03981 -0.129734,0.06286 -0.04213,0.02285 -0.08293,0.04763 -0.1224,0.07446 -0.03947,0.02667 -0.0776,0.05538 -0.114268,0.0857 -0.03653,0.03048 -0.0716,0.06272 -0.105201,0.09624 -0.03347,0.03368 -0.06547,0.06908 -0.0956,0.106015 -0.03027,0.03672 -0.05867,0.07496 -0.08534,0.114867 -0.02653,0.03953 -0.05134,0.08072 -0.07414,0.122881 -0.0228,0.04226 -0.0436,0.08583 -0.06227,0.130574 -0.01867,0.0446 -0.03534,0.09052 -0.04973,0.137278 -0.0144,0.04676 -0.02653,0.09446 -0.0364,0.143099 -0.0094,0.04866 -0.01733,0.09825 -0.0224,0.148609 -0.0053,0.0502 -0.008,0.101318 -0.008,0.153052 v 0.335683 c 0,0.05143 0.0027,0.102223 0.008,0.152114 0.0053,0.05033 0.012,0.09982 0.0224,0.148577 0.0094,0.04864 0.022,0.0964 0.03653,0.143161 0.01426,0.04664 0.03093,0.09262 0.04973,0.137341 0.0188,0.04472 0.0396,0.0883 0.0624,0.130428 0.0228,0.04241 0.0476,0.08332 0.07414,0.123041 0.02653,0.03981 0.05507,0.07812 0.08534,0.114934 0.03013,0.03674 0.06214,0.07208 0.09573,0.105827 0.03346,0.0338 0.06867,0.06592 0.105202,0.09633 0.03666,0.03025 0.0748,0.05884 0.114266,0.08555 0.03947,0.02683 0.08027,0.05177 0.122402,0.0747 0.042,0.02276 0.08534,0.04388 0.129867,0.06278 0.0444,0.01875 0.09,0.03547 0.136495,0.04995 0.04654,0.0144 0.094,0.02667 0.14244,0.03668 0.0484,0.0098 0.0976,0.01731 0.147667,0.02257 0.05,0.0053 0.100804,0.0078 0.152175,0.0078 h 6.89075 c 0.05147,0 0.10213,-0.0022 0.152147,-0.0078 0.05,-0.0053 0.09933,-0.0128 0.147694,-0.02257 0.0484,-0.01 0.09587,-0.02228 0.142441,-0.03668 0.04653,-0.01449 0.09213,-0.0312 0.136494,-0.04995 0.0444,-0.0189 0.08773,-0.04003 0.129735,-0.06278 0.04213,-0.02294 0.08293,-0.04789 0.1224,-0.0747 0.03947,-0.0267 0.0776,-0.05531 0.114268,-0.08555 0.03666,-0.03043 0.07173,-0.06254 0.105334,-0.09633 0.03346,-0.03374 0.06547,-0.06908 0.09573,-0.105827 0.03013,-0.03682 0.05867,-0.07512 0.08534,-0.114934 0.02653,-0.03972 0.05134,-0.08063 0.07427,-0.123041 0.0228,-0.04213 0.0436,-0.0857 0.06227,-0.130428 0.0188,-0.04472 0.03534,-0.0907 0.04987,-0.137341 0.0144,-0.04676 0.02667,-0.09452 0.0364,-0.143161 0.0094,-0.04876 0.01733,-0.09825 0.02253,-0.148577 0.0053,-0.05024 0.008,-0.101226 0.008,-0.152896 V 23.43774 c 0,-0.05015 -0.0027,-0.09975 -0.008,-0.148578 0.0053,-0.04876 0.008,-0.09828 0.008,-0.148295 v -9.507353 c 0,-0.05177 -0.0027,-0.102573 -0.008,-0.152959 -0.0053,-0.05036 -0.012,-0.09994 -0.02253,-0.148483 -0.0094,-0.0488 -0.022,-0.09637 -0.0364,-0.14338 -0.0144,-0.04676 -0.03093,-0.09264 -0.04987,-0.13706 -0.01866,-0.04479 -0.03947,-0.08827 -0.06227,-0.130521 -0.0228,-0.04228 -0.0476,-0.08351 -0.07427,-0.123227 -0.02653,-0.03956 -0.0552,-0.07803 -0.08534,-0.114934 -0.03027,-0.03665 -0.06214,-0.07205 -0.09573,-0.105694 -0.0336,-0.03374 -0.06867,-0.06579 -0.105334,-0.09622 -0.03666,-0.03036 -0.07466,-0.05897 -0.114268,-0.08574 -0.03947,-0.02679 -0.08027,-0.05173 -0.1224,-0.07465 -0.042,-0.02301 -0.08534,-0.04388 -0.129735,-0.0626 -0.0444,-0.01901 -0.08999,-0.03575 -0.136494,-0.05015 -0.04653,-0.01454 -0.09413,-0.02674 -0.142441,-0.03672 -0.0484,-0.0099 -0.09773,-0.01744 -0.147694,-0.02253 -0.05,-0.0053 -0.10067,-0.0078 -0.152147,-0.0078 z m 1.722704,3.210537 h 3.445382 c 0.05134,0 0.101472,0.0062 0.149947,0.01515 0.0484,0.0099 0.09506,0.02451 0.139441,0.04332 0.0444,0.01872 0.08653,0.04206 0.126001,0.0685 0.03947,0.02694 0.07627,0.05737 0.109734,0.0912 0.03346,0.03362 0.06386,0.07064 0.09053,0.110334 0.02667,0.03953 0.04947,0.08197 0.06827,0.126695 0.01867,0.04466 0.03333,0.0917 0.04307,0.140188 0.0094,0.04871 0.01507,0.09916 0.01507,0.150768 v 3.464373 c 0,0.05177 -0.0053,0.102223 -0.01507,0.150892 -0.0094,0.0487 -0.0244,0.09542 -0.04307,0.140189 -0.01866,0.04469 -0.0416,0.08699 -0.06827,0.126828 -0.02667,0.03953 -0.05693,0.07663 -0.09053,0.11024 -0.0336,0.03368 -0.07027,0.06426 -0.109734,0.09098 -0.03947,0.02683 -0.08174,0.04983 -0.126001,0.06865 -0.0444,0.01881 -0.09107,0.03349 -0.139441,0.04332 -0.0484,0.01 -0.09853,0.01527 -0.149947,0.01527 h -3.445382 c -0.05134,0 -0.101472,-0.0062 -0.149894,-0.01527 -0.0484,-0.0099 -0.0952,-0.02451 -0.139521,-0.04332 -0.04453,-0.01881 -0.08666,-0.04181 -0.126134,-0.06865 -0.03947,-0.02673 -0.07627,-0.0573 -0.109867,-0.09098 -0.03346,-0.03362 -0.06373,-0.0707 -0.0904,-0.11024 -0.02667,-0.03984 -0.0496,-0.08214 -0.0684,-0.126828 -0.01866,-0.04476 -0.0332,-0.0915 -0.04307,-0.140189 -0.0094,-0.04866 -0.01493,-0.09912 -0.01493,-0.150892 v -3.464378 c 0,-0.05162 0.0053,-0.102069 0.01493,-0.150768 0.0094,-0.04848 0.0244,-0.09552 0.04307,-0.140188 0.0188,-0.04473 0.0416,-0.08718 0.0684,-0.126695 0.02667,-0.03968 0.05693,-0.07672 0.0904,-0.110334 0.03346,-0.03383 0.07027,-0.06425 0.109867,-0.0912 0.03947,-0.02645 0.0816,-0.0498 0.126134,-0.0685 0.0444,-0.01881 0.09107,-0.0334 0.139521,-0.04332 0.0484,-0.01 0.09853,-0.01515 0.149894,-0.01515 z" />
      <path
         id="path1731"
         style="display:inline;fill:#373e48;fill-opacity:1;stroke:#373e48;stroke-width:0.281692;stroke-linejoin:bevel;stroke-dasharray:none;stroke-opacity:1;paint-order:stroke fill markers"
         d="m 13.2017,17.764081 c -0.03666,0 -0.07293,0.0016 -0.108801,0.0058 -0.03574,0.004 -0.07094,0.009 -0.105601,0.01605 -0.03467,0.0071 -0.06853,0.01589 -0.101863,0.02622 -0.0332,0.0104 -0.06574,0.02244 -0.09761,0.03584 -0.03174,0.01349 -0.0628,0.02848 -0.09267,0.04479 -0.03013,0.01628 -0.05934,0.03414 -0.0876,0.05333 -0.02827,0.019 -0.05534,0.03962 -0.0816,0.06119 -0.02613,0.02175 -0.0512,0.04473 -0.0752,0.0688 -0.024,0.0242 -0.0468,0.04952 -0.0684,0.07562 -0.0216,0.02645 -0.042,0.05381 -0.06093,0.08225 -0.01907,0.02827 -0.0368,0.05763 -0.05307,0.08792 -0.0164,0.03027 -0.0312,0.06134 -0.04453,0.09325 -0.01334,0.03206 -0.02533,0.06485 -0.0356,0.09809 -0.01066,0.03355 -0.01893,0.06767 -0.026,0.102511 -0.0067,0.03475 -0.012,0.07014 -0.016,0.106014 -0.004,0.03598 -0.0053,0.07245 -0.0053,0.109428 v 5.431395 0 0.613025 c 0,0.03693 0.0013,0.07326 0.0053,0.109293 0.004,0.03593 0.0094,0.07143 0.016,0.106228 0.0067,0.03475 0.01573,0.06883 0.026,0.102439 0.01066,0.03336 0.02226,0.06611 0.0356,0.09806 0.01334,0.03189 0.02827,0.06297 0.04453,0.09317 0.01627,0.03039 0.034,0.05972 0.05307,0.0882 0.01907,0.02827 0.03934,0.05566 0.06093,0.08182 0.0216,0.02641 0.0444,0.05159 0.0684,0.07574 0.024,0.02414 0.04906,0.04699 0.0752,0.06883 0.02627,0.02166 0.05347,0.04209 0.0816,0.06132 0.02827,0.0191 0.05733,0.03693 0.0876,0.05333 0.03,0.01642 0.06093,0.03129 0.09267,0.04469 0.03174,0.01352 0.06427,0.02554 0.09761,0.03584 0.03333,0.01053 0.06719,0.01919 0.101863,0.02625 0.03467,0.0071 0.06987,0.01227 0.105601,0.01593 0.03574,0.004 0.072,0.0058 0.108801,0.0058 h 1.283541 v 0 h 0.648737 c 0.0368,0 0.07267,0.004 0.107201,0.0108 0.03467,0.0071 0.068,0.01763 0.09973,0.03102 0.03174,0.01343 0.062,0.02982 0.09013,0.04907 0.02827,0.0191 0.05454,0.04088 0.07853,0.06498 0.024,0.02416 0.0456,0.05053 0.06467,0.07878 0.01893,0.02852 0.03534,0.05872 0.0488,0.09074 0.01333,0.03196 0.02374,0.06539 0.0308,0.100279 0.0067,0.03468 0.01066,0.07073 0.01066,0.107734 v 2.476541 c 0,0.03684 -0.004,0.07286 -0.01066,0.107761 -0.0067,0.03471 -0.01747,0.0682 -0.0308,0.100186 -0.01346,0.03196 -0.02986,0.06226 -0.0488,0.09055 -0.01907,0.02857 -0.04066,0.05477 -0.06467,0.07893 -0.024,0.02416 -0.05014,0.04597 -0.07853,0.06511 -0.02814,0.01916 -0.0584,0.03552 -0.09013,0.04904 -0.03174,0.01349 -0.06507,0.02386 -0.09973,0.03108 -0.03453,0.0071 -0.0704,0.01066 -0.107201,0.01066 h -0.648764 v 0 h -1.283608 c -0.03666,0 -0.07293,0.0016 -0.1088,0.0056 -0.03574,0.004 -0.07094,0.0089 -0.105601,0.01609 -0.03453,0.0071 -0.06853,0.01578 -0.101729,0.02616 -0.03333,0.01053 -0.06587,0.02241 -0.09759,0.03575 -0.03187,0.01356 -0.06267,0.02846 -0.0928,0.04494 -0.03013,0.01633 -0.05933,0.03405 -0.08747,0.05324 -0.02827,0.01907 -0.05547,0.03956 -0.08174,0.06125 -0.02613,0.02179 -0.0512,0.04485 -0.0752,0.06876 -0.024,0.02406 -0.0468,0.04938 -0.06826,0.0758 -0.0216,0.02622 -0.042,0.05361 -0.06107,0.08214 -0.01907,0.02827 -0.0368,0.05765 -0.05307,0.08786 -0.01627,0.03015 -0.03107,0.06132 -0.04453,0.09331 -0.01334,0.03189 -0.0252,0.06472 -0.0356,0.09816 -0.01066,0.03342 -0.01907,0.0675 -0.026,0.102254 -0.0067,0.03484 -0.012,0.07027 -0.016,0.106267 -0.004,0.03589 -0.0053,0.0724 -0.0053,0.109388 v 0.23997 c 0,0.03677 0.0013,0.07308 0.0053,0.108761 0.004,0.03596 0.0094,0.07136 0.016,0.1062 0.0067,0.03475 0.01573,0.06892 0.02613,0.102326 0.01066,0.03336 0.02226,0.06623 0.0356,0.09819 0.01346,0.03198 0.02827,0.06309 0.04466,0.09324 0.01627,0.03034 0.034,0.05953 0.05306,0.08799 0.01893,0.02841 0.03934,0.05584 0.06093,0.0821 0.0216,0.0263 0.0444,0.05154 0.0684,0.07565 0.024,0.02416 0.04907,0.04713 0.0752,0.06889 0.02627,0.02163 0.05347,0.04207 0.08174,0.06116 0.02814,0.01916 0.05733,0.03696 0.08746,0.05343 0.03,0.01622 0.06107,0.03136 0.0928,0.04483 0.03174,0.0134 0.06426,0.02539 0.09747,0.03571 0.03333,0.01028 0.06721,0.01907 0.101863,0.02622 0.03467,0.0071 0.06987,0.0124 0.1056,0.01615 0.03574,0.004 0.072,0.0056 0.108801,0.0056 h 4.925751 c 0.03666,0 0.07294,-0.0016 0.108801,-0.0056 0.03574,-0.004 0.07093,-0.0092 0.1056,-0.01615 0.03453,-0.0072 0.06853,-0.01593 0.101864,-0.02622 0.03333,-0.01028 0.06587,-0.02232 0.09761,-0.03571 0.03174,-0.01345 0.06267,-0.02861 0.09267,-0.04483 0.03013,-0.01646 0.05933,-0.03427 0.0876,-0.05343 0.02814,-0.0191 0.05546,-0.03953 0.0816,-0.06116 0.02613,-0.02175 0.0512,-0.04472 0.07533,-0.06889 0.02387,-0.02409 0.0468,-0.04936 0.0684,-0.07565 0.0216,-0.02627 0.04187,-0.05368 0.06093,-0.0821 0.01907,-0.02846 0.03666,-0.05765 0.05307,-0.08799 0.0164,-0.03015 0.0312,-0.06125 0.04453,-0.09324 0.01346,-0.03196 0.02533,-0.06481 0.0356,-0.09819 0.01066,-0.0334 0.01907,-0.06758 0.02613,-0.102326 0.0067,-0.03484 0.012,-0.07024 0.016,-0.1062 0.004,-0.03593 0.0053,-0.0724 0.0053,-0.109334 v -4.952987 c 0,-0.0358 -0.0013,-0.07129 -0.0053,-0.106227 0.004,-0.03484 0.0053,-0.07024 0.0053,-0.105974 v -6.796225 c 0,-0.03702 -0.0013,-0.07334 -0.0053,-0.109361 -0.004,-0.03598 -0.0094,-0.07142 -0.016,-0.106133 -0.0067,-0.03489 -0.01587,-0.06889 -0.02613,-0.10247 -0.01067,-0.0335 -0.02213,-0.06625 -0.0356,-0.098 -0.01334,-0.03201 -0.02814,-0.06309 -0.04453,-0.09331 -0.01627,-0.03027 -0.034,-0.05968 -0.05307,-0.08808 -0.01907,-0.02829 -0.03934,-0.05577 -0.06093,-0.08216 -0.0216,-0.0262 -0.04453,-0.05152 -0.0684,-0.07556 -0.024,-0.0241 -0.04906,-0.04701 -0.07533,-0.0688 -0.02613,-0.02169 -0.05347,-0.04213 -0.0816,-0.06128 -0.02814,-0.01916 -0.05747,-0.03696 -0.0876,-0.05336 -0.03,-0.0164 -0.06093,-0.03134 -0.09267,-0.04473 -0.03174,-0.01358 -0.06427,-0.02553 -0.09761,-0.03584 -0.03333,-0.0104 -0.0672,-0.01912 -0.101864,-0.02625 -0.03467,-0.0071 -0.06987,-0.0124 -0.1056,-0.01609 -0.03574,-0.004 -0.072,-0.0056 -0.108801,-0.0056 z m 1.231434,2.295038 h 2.462962 c 0.03666,0 0.07253,0.0044 0.1072,0.0108 0.03453,0.0071 0.068,0.01754 0.0996,0.03099 0.03174,0.0134 0.06187,0.03011 0.09014,0.04898 0.02827,0.01928 0.0544,0.041 0.0784,0.0652 0.024,0.02404 0.0456,0.05049 0.06467,0.07887 0.01907,0.02827 0.03547,0.05859 0.0488,0.09055 0.01334,0.03196 0.02373,0.06557 0.0308,0.100218 0.0067,0.03484 0.01066,0.07087 0.01066,0.107788 v 2.476447 c 0,0.03705 -0.004,0.07308 -0.01066,0.107894 -0.0067,0.03477 -0.01746,0.0682 -0.0308,0.100217 -0.01334,0.03192 -0.02973,0.06214 -0.0488,0.09064 -0.01907,0.02827 -0.04066,0.05477 -0.06467,0.07878 -0.024,0.02407 -0.05027,0.04595 -0.0784,0.06507 -0.02827,0.01916 -0.0584,0.03558 -0.09014,0.04907 -0.03174,0.01342 -0.06507,0.02391 -0.0996,0.03092 -0.03467,0.0072 -0.07054,0.01093 -0.1072,0.01093 h -2.462962 c -0.03666,0 -0.07253,-0.0044 -0.107067,-0.01093 -0.03467,-0.0071 -0.068,-0.01749 -0.09973,-0.03092 -0.03187,-0.01349 -0.06187,-0.02992 -0.09014,-0.04907 -0.02827,-0.01912 -0.05454,-0.041 -0.0784,-0.06507 -0.024,-0.024 -0.04573,-0.05053 -0.06467,-0.07878 -0.01907,-0.02852 -0.03547,-0.05872 -0.0488,-0.09064 -0.01334,-0.03201 -0.02374,-0.06544 -0.0308,-0.100217 -0.0067,-0.0348 -0.01066,-0.07083 -0.01066,-0.107894 v -2.476447 c 0,-0.03693 0.004,-0.07297 0.01066,-0.107788 0.0067,-0.03466 0.01746,-0.06827 0.0308,-0.100218 0.01333,-0.03196 0.02973,-0.06228 0.0488,-0.09055 0.01907,-0.02838 0.04066,-0.05483 0.06467,-0.07887 0.02387,-0.0242 0.05013,-0.04592 0.0784,-0.0652 0.02827,-0.01887 0.0584,-0.03558 0.09014,-0.04898 0.03174,-0.01345 0.06507,-0.02388 0.09973,-0.03099 0.03453,-0.0071 0.0704,-0.0108 0.107067,-0.0108 z" />
      <path
         id="path1732"
         style="display:inline;fill:#ffffff;fill-opacity:1;stroke:#6f7c91;stroke-width:0.173464;stroke-linejoin:bevel;stroke-dasharray:none;stroke-opacity:1;paint-order:stroke fill markers"
         d="m 19.726702,31.893261 c -0.01536,0 -0.03038,-9.61e-4 -0.04524,-0.0022 -0.01487,-0.0016 -0.02948,-0.0039 -0.04392,-0.0066 -0.01437,-0.003 -0.02849,-0.0066 -0.04228,-0.01094 -0.01388,-0.0043 -0.02742,-0.0093 -0.04056,-0.01487 -0.01321,-0.0057 -0.02611,-0.01188 -0.03859,-0.01863 -0.01256,-0.0067 -0.02471,-0.01419 -0.03637,-0.0222 -0.01174,-0.0078 -0.02308,-0.01645 -0.03391,-0.02541 -0.01092,-0.0091 -0.02135,-0.01863 -0.03128,-0.02861 -0.01,-0.01008 -0.01946,-0.0206 -0.02841,-0.03142 -0.0091,-0.01099 -0.01749,-0.02237 -0.02537,-0.03422 -0.0082,-0.01174 -0.01527,-0.02396 -0.02201,-0.03657 -0.0066,-0.01256 -0.01305,-0.02545 -0.01856,-0.03876 -0.0058,-0.0133 -0.01051,-0.02693 -0.01487,-0.04077 -0.0042,-0.01393 -0.0082,-0.02814 -0.01084,-0.04265 -0.0033,-0.0144 -0.005,-0.02914 -0.0066,-0.04405 -0.0017,-0.01496 -0.0024,-0.03012 -0.0024,-0.04553 v -2.25828 0 -0.254915 c 0,-0.01541 8.12e-4,-0.03047 0.0024,-0.04549 0.0017,-0.01493 0.0042,-0.0297 0.0066,-0.04414 0.0033,-0.01447 0.0066,-0.0287 0.01084,-0.04264 0.0042,-0.01385 0.0093,-0.02745 0.01487,-0.04074 0.0058,-0.01326 0.01174,-0.02623 0.01856,-0.03879 0.0066,-0.01257 0.01412,-0.02478 0.02201,-0.03661 0.0082,-0.01177 0.01642,-0.0232 0.02537,-0.03404 0.009,-0.01099 0.01848,-0.02146 0.02841,-0.03148 0.01,-0.01008 0.02036,-0.01959 0.03128,-0.02867 0.01092,-0.009 0.02216,-0.01752 0.03391,-0.0255 0.01174,-0.0078 0.02388,-0.01533 0.03637,-0.02215 0.01248,-0.0068 0.02537,-0.01304 0.03859,-0.01859 0.01314,-0.0057 0.02677,-0.01062 0.04056,-0.01493 0.0138,-0.0044 0.02791,-0.0079 0.04228,-0.01089 0.01445,-0.0028 0.02907,-0.005 0.04392,-0.0066 0.01487,-0.0017 0.02997,-0.0022 0.04524,-0.0022 h 0.533651 v 0 h 0.269737 c 0.01527,0 0.03013,-0.0017 0.04458,-0.0045 0.01436,-0.0028 0.02825,-0.0073 0.04146,-0.01287 0.01314,-0.0056 0.02579,-0.01242 0.03752,-0.02043 0.01174,-0.0079 0.02266,-0.01699 0.0326,-0.02698 0.01,-0.01008 0.01896,-0.02102 0.02685,-0.0328 0.0082,-0.01184 0.01478,-0.02438 0.02028,-0.03773 0.0058,-0.01325 0.0099,-0.02716 0.0128,-0.04167 0.0033,-0.01442 0.0042,-0.0294 0.0042,-0.04481 v -1.029679 c 0,-0.01541 -0.0017,-0.03036 -0.0042,-0.04481 -0.0033,-0.01447 -0.0074,-0.0284 -0.0128,-0.0417 -0.0058,-0.01329 -0.01239,-0.02586 -0.02028,-0.03766 -0.0082,-0.01186 -0.01691,-0.02278 -0.02685,-0.03283 -0.01,-0.01 -0.02085,-0.01912 -0.0326,-0.02708 -0.01174,-0.0078 -0.02438,-0.01477 -0.03752,-0.02035 -0.01314,-0.0057 -0.02709,-0.01 -0.04146,-0.01291 -0.01445,-0.003 -0.02931,-0.0045 -0.04458,-0.0045 h -0.269737 v 0 h -0.533709 c -0.01527,0 -0.03038,-9.59e-4 -0.04524,-0.0022 -0.01478,-0.0013 -0.02947,-0.0039 -0.04384,-0.0066 -0.01437,-0.003 -0.0285,-0.0066 -0.04237,-0.01093 -0.0138,-0.0044 -0.02742,-0.0094 -0.04056,-0.01487 -0.0133,-0.0057 -0.02611,-0.01184 -0.03867,-0.01866 -0.01248,-0.0068 -0.02456,-0.01419 -0.03629,-0.02214 -0.01174,-0.0079 -0.02308,-0.01647 -0.03399,-0.02547 -0.01092,-0.0091 -0.02126,-0.01864 -0.03128,-0.0286 -0.01,-0.01 -0.01946,-0.02053 -0.02841,-0.0315 -0.0091,-0.01094 -0.0174,-0.02229 -0.02537,-0.03413 -0.0082,-0.01176 -0.01526,-0.02401 -0.022,-0.03654 -0.0066,-0.01259 -0.01297,-0.02552 -0.01856,-0.03882 -0.0058,-0.01324 -0.01051,-0.02691 -0.01478,-0.04082 -0.0042,-0.01392 -0.0082,-0.02805 -0.01084,-0.04256 -0.0033,-0.0144 -0.005,-0.02917 -0.0066,-0.04414 -0.0017,-0.01488 -0.0024,-0.03012 -0.0024,-0.04549 v -0.09974 c 0,-0.01525 8.12e-4,-0.03038 0.0024,-0.04523 0.0017,-0.01496 0.0042,-0.02968 0.0066,-0.04416 0.0033,-0.01442 0.0066,-0.02867 0.01084,-0.04258 0.0042,-0.01385 0.0093,-0.02748 0.01478,-0.04079 0.0058,-0.0133 0.01174,-0.02623 0.01856,-0.03872 0.0066,-0.01266 0.01412,-0.02484 0.022,-0.03661 0.0082,-0.01186 0.01633,-0.0232 0.02537,-0.03417 0.009,-0.01094 0.01848,-0.02141 0.02841,-0.03141 0.01,-0.01008 0.02036,-0.01963 0.03128,-0.02867 0.01091,-0.009 0.02226,-0.01753 0.03399,-0.02546 0.01174,-0.0079 0.02381,-0.01538 0.03629,-0.02219 0.01256,-0.0067 0.02537,-0.01304 0.03859,-0.01869 0.01321,-0.0055 0.02686,-0.0105 0.04065,-0.01481 0.01387,-0.0043 0.02801,-0.0078 0.04237,-0.01092 0.01436,-0.003 0.02906,-0.0052 0.04384,-0.0067 0.01495,-0.0017 0.02997,-0.0022 0.04524,-0.0022 h 2.048117 c 0.01526,0 0.0303,9.61e-4 0.04524,0.0022 0.01487,0.0017 0.02948,0.0039 0.04384,0.0067 0.01437,0.003 0.02849,0.0066 0.04237,0.01092 0.01387,0.0043 0.02742,0.0093 0.04065,0.01481 0.01322,0.0057 0.02603,0.01194 0.03859,0.01869 0.01248,0.0068 0.02464,0.01421 0.03637,0.02219 0.01174,0.0078 0.02307,0.01646 0.03398,0.02546 0.01084,0.0091 0.02126,0.01859 0.0312,0.02867 0.01,0.01 0.01946,0.02047 0.02841,0.03141 0.009,0.01097 0.0174,0.02232 0.02537,0.03417 0.0082,0.01176 0.01519,0.02395 0.02201,0.03661 0.0066,0.01249 0.01307,0.02542 0.01855,0.03872 0.0058,0.01332 0.01043,0.02695 0.01478,0.04079 0.0042,0.01392 0.0082,0.02816 0.01084,0.04258 0.0033,0.01447 0.005,0.0292 0.0066,0.04416 0.0017,0.01498 0.0024,0.03011 0.0024,0.04545 v 2.05943 c 0,0.01487 -8.12e-4,0.02963 -0.0024,0.04414 0.0017,0.01453 0.0024,0.02926 0.0024,0.04411 v 2.825854 c 0,0.01541 -8.12e-4,0.03051 -0.0024,0.04547 -0.0017,0.01495 -0.0042,0.0297 -0.0066,0.04416 -0.0033,0.01447 -0.0066,0.02863 -0.01084,0.04256 -0.0042,0.01396 -0.0092,0.02754 -0.01478,0.0408 -0.0058,0.01326 -0.01174,0.02617 -0.01855,0.03876 -0.0066,0.01259 -0.01412,0.0248 -0.02201,0.03661 -0.0082,0.01176 -0.01642,0.0232 -0.02537,0.03417 -0.0091,0.01089 -0.01848,0.02138 -0.02841,0.03139 -0.01,0.01008 -0.02036,0.01955 -0.0312,0.0286 -0.01091,0.0091 -0.02226,0.0175 -0.03398,0.0255 -0.01174,0.0079 -0.02389,0.01534 -0.03637,0.02215 -0.01256,0.0068 -0.02537,0.0131 -0.03859,0.01866 -0.01321,0.0056 -0.02676,0.01055 -0.04065,0.01487 -0.0138,0.0044 -0.02791,0.0078 -0.04237,0.01089 -0.01436,0.003 -0.02898,0.0052 -0.04384,0.0067 -0.01487,0.0017 -0.02997,0.0022 -0.04524,0.0022 z m 0.511991,-0.95421 h 1.024075 c 0.01527,0 0.03021,-0.002 0.04451,-0.0047 0.01445,-0.0028 0.02825,-0.0072 0.04146,-0.01285 0.01321,-0.0055 0.0257,-0.01253 0.03744,-0.02035 0.01174,-0.008 0.02266,-0.01703 0.0326,-0.02708 0.01,-0.01 0.01896,-0.02102 0.02693,-0.0328 0.0082,-0.01174 0.01469,-0.02436 0.02028,-0.03766 0.0058,-0.01328 0.01,-0.02727 0.0128,-0.04165 0.0033,-0.01449 0.0042,-0.02946 0.0042,-0.04483 v -1.029655 c 0,-0.01538 -0.0017,-0.03038 -0.0042,-0.04485 -0.0033,-0.01449 -0.0074,-0.02835 -0.0128,-0.0417 -0.0058,-0.01324 -0.0124,-0.02583 -0.02028,-0.03768 -0.0082,-0.01174 -0.01691,-0.02275 -0.02693,-0.03273 -0.01,-0.01008 -0.02085,-0.01912 -0.0326,-0.02706 -0.01174,-0.0079 -0.0243,-0.01481 -0.03744,-0.02043 -0.01322,-0.0055 -0.02701,-0.01 -0.04146,-0.01287 -0.01429,-0.003 -0.02931,-0.0045 -0.04451,-0.0045 h -1.024075 c -0.01527,0 -0.03013,0.0016 -0.04458,0.0045 -0.01436,0.003 -0.02825,0.0073 -0.04139,0.01287 -0.01322,0.0057 -0.02578,0.01248 -0.03752,0.02043 -0.01174,0.0079 -0.02266,0.01699 -0.0326,0.02706 -0.01,0.01 -0.01897,0.02098 -0.02685,0.03273 -0.0082,0.01186 -0.01478,0.02443 -0.02028,0.03768 -0.0058,0.01336 -0.01,0.02721 -0.01281,0.0417 -0.0033,0.01447 -0.0042,0.02946 -0.0042,0.04485 v 1.029687 c 0,0.01536 0.0017,0.03035 0.0042,0.04483 0.0033,0.01438 0.0074,0.02836 0.01281,0.04165 0.0058,0.0133 0.01231,0.02592 0.02028,0.03766 0.0082,0.01177 0.01691,0.02279 0.02685,0.0328 0.01,0.01008 0.02093,0.01907 0.0326,0.02708 0.01174,0.0078 0.0243,0.01482 0.03752,0.02035 0.01314,0.0057 0.0271,0.01 0.04139,0.01285 0.01445,0.0031 0.02931,0.0047 0.04458,0.0047 z" />
      <path
         id="path1733"
         style="display:inline;fill:#ffffff;fill-opacity:1;stroke:#6f7c91;stroke-width:0.173464;stroke-linejoin:bevel;stroke-dasharray:none;stroke-opacity:1;paint-order:stroke fill markers"
         d="m 23.739596,28.503529 c 0.0089,0 0.01757,0 0.02611,0.0017 0.0085,9.61e-4 0.01708,0.0019 0.02545,0.0039 0.0082,0.0019 0.01651,0.0039 0.02448,0.0063 0.0082,0.0024 0.01584,0.0054 0.02341,0.0086 0.0074,0.0033 0.01511,0.0068 0.02234,0.01078 0.0074,0.0039 0.01429,0.0082 0.02111,0.01281 0.0066,0.0047 0.0133,0.0096 0.01963,0.01471 0.0066,0.0053 0.01231,0.01081 0.01806,0.01655 0.0058,0.0058 0.01133,0.01189 0.01651,0.0182 0.005,0.0063 0.01007,0.01293 0.01462,0.01977 0.005,0.0068 0.0089,0.01382 0.01273,0.02115 0.0042,0.0072 0.0074,0.01475 0.01076,0.02248 0.0033,0.0076 0.0058,0.01554 0.0085,0.02353 0.0024,0.008 0.005,0.01626 0.0066,0.02464 0.0017,0.0083 0.0033,0.01686 0.0042,0.02556 8.13e-4,0.0086 0.0017,0.0174 0.0017,0.02628 v 1.306015 0 0.147408 c 0,0.0089 0,0.01759 -0.0017,0.02634 -8.12e-4,0.0085 -0.0017,0.01715 -0.0042,0.02547 -0.0017,0.0083 -0.0042,0.01658 -0.0066,0.02465 -0.0024,0.0079 -0.0058,0.0159 -0.0085,0.0236 -0.0033,0.0076 -0.0066,0.01513 -0.01076,0.02241 -0.0042,0.0073 -0.0082,0.01434 -0.01273,0.02119 -0.005,0.0068 -0.0095,0.0134 -0.01462,0.01966 -0.005,0.0063 -0.01067,0.01244 -0.01651,0.01826 -0.0058,0.0058 -0.01182,0.01126 -0.01806,0.01648 -0.0066,0.0053 -0.0128,0.01018 -0.01963,0.01477 -0.0066,0.0047 -0.0138,0.0089 -0.02111,0.01283 -0.0074,0.0039 -0.01469,0.0075 -0.02234,0.01075 -0.0074,0.0032 -0.01544,0.0061 -0.02341,0.0087 -0.0082,0.0024 -0.01609,0.0047 -0.02448,0.0063 -0.0083,0.0017 -0.01683,0.0031 -0.02545,0.0039 -0.0086,9.61e-4 -0.01733,0.0017 -0.02611,0.0017 h -0.308655 v 0 h -0.155963 c -0.0089,0 -0.01748,9.61e-4 -0.02578,0.0028 -0.0082,0.0019 -0.01633,0.0042 -0.02398,0.0074 -0.0074,0.0032 -0.01495,0.0072 -0.02168,0.01181 -0.0066,0.0047 -0.01314,0.0099 -0.01889,0.01563 -0.0058,0.0058 -0.01099,0.01218 -0.0156,0.01896 -0.005,0.0068 -0.0085,0.01408 -0.01174,0.02184 -0.0033,0.0076 -0.0058,0.01566 -0.0074,0.02409 -0.0017,0.0083 -0.0024,0.01696 -0.0024,0.02591 v 0.595486 c 0,0.0089 8.13e-4,0.01752 0.0024,0.02592 0.0017,0.0083 0.0042,0.01638 0.0074,0.02408 0.0033,0.0077 0.0074,0.01499 0.01174,0.02179 0.005,0.0068 0.0099,0.01316 0.0156,0.01899 0.0058,0.0058 0.01208,0.01105 0.01889,0.0157 0.0066,0.0045 0.01395,0.0085 0.02168,0.01174 0.0074,0.0033 0.01568,0.0058 0.02398,0.0074 0.0082,0.0017 0.01692,0.0024 0.02578,0.0024 h 0.155987 v 0 h 0.308631 c 0.0089,0 0.01757,0 0.02619,0.0017 0.0086,9.6e-4 0.01708,0.0022 0.02537,0.0039 0.0082,0.0019 0.01651,0.0039 0.02448,0.0063 0.0082,0.0024 0.01576,0.0054 0.02341,0.0086 0.0074,0.0032 0.01511,0.0068 0.02234,0.01076 0.0074,0.0039 0.01429,0.0082 0.02101,0.01281 0.0066,0.0047 0.0133,0.0096 0.01963,0.01473 0.0066,0.0053 0.01231,0.0108 0.01815,0.01658 0.0058,0.0058 0.01125,0.01185 0.01643,0.01822 0.005,0.0063 0.01008,0.01287 0.01462,0.01969 0.005,0.0068 0.0089,0.01392 0.01273,0.02117 0.0042,0.0073 0.0074,0.01475 0.01076,0.02249 0.0033,0.0076 0.0058,0.01548 0.0085,0.02357 0.0024,0.008 0.005,0.01621 0.0066,0.02457 0.0017,0.0083 0.0033,0.01691 0.0042,0.02553 8.12e-4,0.0086 0.0017,0.01738 0.0017,0.02625 v 0.05773 c 0,0.0089 -5.75e-4,0.01759 -0.0017,0.02613 -8.12e-4,0.0086 -0.0017,0.01715 -0.0042,0.02556 -0.0017,0.0083 -0.0042,0.01658 -0.0066,0.02462 -0.0024,0.0079 -0.005,0.01592 -0.0085,0.02359 -0.0033,0.0077 -0.0066,0.01519 -0.01076,0.02246 -0.0042,0.0073 -0.0082,0.01432 -0.01273,0.02111 -0.005,0.0068 -0.0095,0.01344 -0.01462,0.01977 -0.005,0.0063 -0.01066,0.01244 -0.01651,0.01819 -0.0058,0.0058 -0.01174,0.01132 -0.01806,0.01655 -0.0066,0.0053 -0.0128,0.01008 -0.01963,0.0147 -0.0066,0.0047 -0.0138,0.009 -0.02101,0.01283 -0.0074,0.0039 -0.01469,0.0075 -0.02234,0.01077 -0.0074,0.0032 -0.01552,0.0061 -0.02349,0.0085 -0.0082,0.0024 -0.01617,0.0047 -0.02447,0.0063 -0.0083,0.0017 -0.01683,0.0031 -0.02537,0.0039 -0.0087,9.59e-4 -0.01733,0.0012 -0.02619,0.0012 h -1.184437 c -0.0089,0 -0.01748,0 -0.02618,-0.0012 -0.0086,-9.6e-4 -0.01708,-0.0022 -0.02537,-0.0039 -0.0082,-0.002 -0.01651,-0.0039 -0.02448,-0.0063 -0.0082,-0.0024 -0.01576,-0.0053 -0.02348,-0.0085 -0.0074,-0.0032 -0.01503,-0.0068 -0.02234,-0.01077 -0.0074,-0.0039 -0.01421,-0.0082 -0.02102,-0.01283 -0.0066,-0.0047 -0.01338,-0.0095 -0.01971,-0.0147 -0.0066,-0.0053 -0.01231,-0.01073 -0.01806,-0.01655 -0.0058,-0.0058 -0.01124,-0.01188 -0.01642,-0.01819 -0.005,-0.0063 -0.01,-0.01293 -0.01462,-0.01977 -0.005,-0.0068 -0.0089,-0.01382 -0.01273,-0.02111 -0.0042,-0.0072 -0.0074,-0.01477 -0.01075,-0.02246 -0.0033,-0.0076 -0.0058,-0.01559 -0.0086,-0.02359 -0.0024,-0.008 -0.005,-0.01626 -0.0066,-0.02462 -0.0017,-0.0084 -0.0033,-0.01689 -0.0042,-0.02556 -8.13e-4,-0.0086 -0.0017,-0.01738 -0.0017,-0.02624 V 30.44635 c 0,-0.0085 0,-0.01715 0.0017,-0.02555 -8.13e-4,-0.0083 -0.0017,-0.01688 -0.0017,-0.02548 v -1.634294 c 0,-0.0089 0,-0.01762 0.0017,-0.02629 8.12e-4,-0.0086 0.0017,-0.01719 0.0042,-0.0255 0.0017,-0.0083 0.0042,-0.01659 0.0066,-0.02471 0.0024,-0.008 0.0058,-0.01584 0.0086,-0.02352 0.0033,-0.0077 0.0066,-0.01513 0.01075,-0.02243 0.0042,-0.0073 0.0082,-0.01436 0.01273,-0.02119 0.005,-0.0068 0.0095,-0.01342 0.01462,-0.01974 0.005,-0.0063 0.01067,-0.01237 0.01642,-0.0182 0.0058,-0.0058 0.01183,-0.01132 0.01806,-0.0165 0.0066,-0.0053 0.01289,-0.01018 0.01971,-0.01474 0.0066,-0.0047 0.01379,-0.0089 0.02102,-0.01288 0.0074,-0.0039 0.0147,-0.0075 0.02234,-0.01074 0.0074,-0.0033 0.01544,-0.0061 0.02348,-0.0086 0.0082,-0.0024 0.01618,-0.0047 0.02448,-0.0063 0.0083,-0.0016 0.01675,-0.0031 0.02537,-0.0039 0.0086,-9.59e-4 0.01732,-0.0016 0.02618,-0.0016 z m -0.296142,0.55185 h -0.59221 c -0.0088,0 -0.01748,9.61e-4 -0.02578,0.0029 -0.0083,0.0017 -0.01633,0.0042 -0.02398,0.0074 -0.0074,0.0032 -0.01487,0.0072 -0.02168,0.01174 -0.0066,0.0047 -0.01306,0.0099 -0.01888,0.0157 -0.0058,0.0058 -0.011,0.01215 -0.01552,0.01896 -0.005,0.0068 -0.0085,0.01406 -0.01174,0.02176 -0.0033,0.0077 -0.0058,0.01578 -0.0074,0.02411 -0.0017,0.0083 -0.0024,0.017 -0.0024,0.02589 v 0.595504 c 0,0.009 8.12e-4,0.01755 0.0024,0.02594 0.0017,0.0083 0.0042,0.01636 0.0074,0.02409 0.0033,0.0076 0.0074,0.01496 0.01174,0.02179 0.005,0.0068 0.0098,0.01318 0.01552,0.019 0.0058,0.0058 0.01207,0.01099 0.01888,0.01563 0.0066,0.0047 0.01403,0.0085 0.02168,0.01181 0.0074,0.0032 0.0156,0.0058 0.02398,0.0074 0.0082,0.0017 0.017,0.0027 0.02578,0.0027 h 0.59221 c 0.0089,0 0.0174,-0.0012 0.02578,-0.0027 0.0082,-0.0017 0.01633,-0.0043 0.02398,-0.0074 0.0074,-0.0033 0.01487,-0.0072 0.02168,-0.01181 0.0066,-0.0047 0.01314,-0.0099 0.01888,-0.01563 0.0058,-0.0058 0.01099,-0.01221 0.0156,-0.019 0.005,-0.0068 0.0085,-0.0141 0.01174,-0.02179 0.0033,-0.0077 0.0058,-0.01576 0.0074,-0.02409 0.0017,-0.0083 0.0024,-0.01704 0.0024,-0.02594 V 29.18384 c 0,-0.0089 -8.12e-4,-0.01752 -0.0024,-0.02589 -0.0017,-0.0083 -0.0042,-0.01642 -0.0074,-0.02411 -0.0033,-0.0077 -0.0074,-0.01495 -0.01174,-0.02176 -0.005,-0.0068 -0.0099,-0.01318 -0.0156,-0.01896 -0.0058,-0.0058 -0.01207,-0.0111 -0.01888,-0.0157 -0.0066,-0.0045 -0.01403,-0.0085 -0.02168,-0.01174 -0.0074,-0.0033 -0.0156,-0.0058 -0.02398,-0.0074 -0.0082,-0.002 -0.01692,-0.0028 -0.02578,-0.0028 z" />
    </g>
  </g>
</svg>
